<svg preserveAspectRatio="none" width="100%" height="100%" overflow="visible" style="display: block;" viewBox="0 0 6.6 7.8" fill="none" xmlns="http://www.w3.org/2000/svg">
<g id="Group 105">
<path id="Vector 17" d="M6.09961 2.3V6.0002C6.09952 6.32568 5.88652 6.63972 5.35059 6.89961C4.81929 7.15721 4.07434 7.3 3.2998 7.3C2.52533 7.29998 1.78028 7.15719 1.24902 6.89961C0.713321 6.63975 0.500086 6.32562 0.5 6.0002V2.3H6.09961Z" fill="var(--fill-0, #CEE0FA)" stroke="var(--stroke-0, #003F99)"/>
<path id="Ellipse 12" d="M3.2998 0.5C4.14362 0.5 4.88306 0.687511 5.39355 0.96582C5.92282 1.25451 6.09951 1.57151 6.09961 1.7998C6.09961 2.02811 5.92297 2.34502 5.39355 2.63379C4.88306 2.91215 4.14371 3.09961 3.2998 3.09961C2.45581 3.09958 1.71653 2.91222 1.20605 2.63379C0.676636 2.34502 0.5 2.02811 0.5 1.7998C0.500101 1.57151 0.676787 1.25451 1.20605 0.96582C1.71652 0.687442 2.4559 0.500029 3.2998 0.5Z" fill="var(--fill-0, white)" stroke="var(--stroke-0, #003F99)"/>
</g>
</svg>
